<?xml version="1.0" encoding="utf-8"?>
<!-- Generator: Adobe Illustrator 27.0.1, SVG Export Plug-In . SVG Version: 6.00 Build 0)  -->
<svg version="1.1" id="Layer_1" xmlns="http://www.w3.org/2000/svg" xmlns:xlink="http://www.w3.org/1999/xlink" x="0px" y="0px"
	 viewBox="0 0 700 700" style="enable-background:new 0 0 700 700;" xml:space="preserve">
<style type="text/css">
	.st0{fill:#0F3460;}
</style>
<g>
	<path class="st0" d="M479,215.5c-10.6-2.8-21.8,3.9-24.6,14.6l-7.8,30.2c-4.5,16.8-19,29.1-36.4,30.8c-16.2,1.1-34.7,2.2-54.9,2.2
		c-5,0-10.6,0-15.7,0.6c-41.4,2.2-76.2,30.8-87.4,70l-12.9,47.6c-2.8,10.6,3.4,21.8,14,24.6c1.7,0.6,3.4,0.6,5,0.6
		c9,0,16.8-6.2,19.6-14.6l12.9-47.6c2.8-10.1,8.4-19,15.7-25.8l-0.6,72.8l-42,147.3c-3.4,11.8,3.4,24.1,15.7,27.4
		c2.2,0.6,3.9,1.1,6.2,1.1c9.5,0,18.5-6.2,21.3-16.2l42-147.8h9.5L356.4,575c0,12.3,9.5,22.4,21.8,23h0.6
		c12.3,0,22.4-10.1,22.4-21.8l2.2-150.6L404,332c3.4,0,6.7-0.6,9.5-0.6c34.7-2.8,63.8-27.4,72.2-61l7.8-30.2
		C496.4,229,489.7,218.3,479,215.5L479,215.5z"/>
	<path class="st0" d="M400.6,236.2c0,24.7-20.1,44.8-44.8,44.8S311,261,311,236.2s20.1-44.8,44.8-44.8S400.6,211.5,400.6,236.2"/>
	<path class="st0" d="M543.4,184.7c-3.9-3.9-10.6-3.9-14,0.6L514.3,201c-3.9,3.9-3.9,10.6,0.6,14c1.7,1.7,4.5,2.8,6.7,2.8
		c2.8,0,5-1.1,7.3-3.4l15.1-15.7C547.9,194.8,547.9,188.6,543.4,184.7L543.4,184.7z"/>
	<path class="st0" d="M494.7,158.4c-5.6-1.1-10.6,2.2-12.3,7.3l-5,21.3c-1.1,5.6,2.2,10.6,7.3,12.3c0.6,0,1.7,0.6,2.2,0.6
		c4.5,0,8.4-3.4,9.5-7.8l5-21.3C503.7,165.1,500.3,159.5,494.7,158.4L494.7,158.4z"/>
	<path class="st0" d="M438.7,193.1c1.1,4.5,5,7.3,9.5,7.3c1.1,0,1.7,0,2.8-0.6c5.6-1.7,8.4-7.3,6.7-12.3l-6.2-21.3
		c-1.7-5.6-7.3-8.4-12.3-6.7c-5.6,1.7-8.4,7.3-6.7,12.3L438.7,193.1z"/>
	<path class="st0" d="M288.1,209.9c6.2,2.8,12.9-3.4,9.5-9.5l-12.9-28c6.2-10.6,9.5-22.4,9.5-35.8c0-38.6-31.4-70.6-70.6-70.6
		c-38.6,0-70.6,31.4-70.6,70.6c0,38.6,31.4,70.6,70.6,70.6c12.9,0,25.2-3.4,35.8-9.5L288.1,209.9z M184.5,148.9
		c-6.7,0-12.3-5.6-12.3-12.3c0-6.7,5.6-12.3,12.3-12.3s12.3,5.6,12.3,12.3C196.8,143.3,191.2,148.9,184.5,148.9z M224.2,148.9
		c-6.7,0-12.3-5.6-12.3-12.3c0-6.7,5.6-12.3,12.3-12.3s12.3,5.6,12.3,12.3C236.6,143.3,231,148.9,224.2,148.9z M251.1,136.6
		c0-6.7,5.6-12.3,12.3-12.3s12.3,5.6,12.3,12.3c0,6.7-5.6,12.3-12.3,12.3S251.1,143.3,251.1,136.6z"/>
</g>
</svg>
